<svg data-v-fde0c5aa="" xmlns="http://www.w3.org/2000/svg" viewBox="0 0 300 300" class="font"><!----><defs data-v-fde0c5aa=""><!----></defs><rect data-v-fde0c5aa="" fill="transparent" x="0" y="0" width="300px" height="300px" class="logo-background-square"></rect><defs data-v-fde0c5aa=""><linearGradient data-v-fde0c5aa="" gradientTransform="rotate(25)" id="2dbfbf65-cd04-467b-b2fc-2bb280844c6f" x1="0%" y1="0%" x2="100%" y2="0%"><stop data-v-fde0c5aa="" offset="0%" stop-color="#34BC10" stop-opacity="1"></stop><stop data-v-fde0c5aa="" offset="100%" stop-color="#A3BE9B" stop-opacity="1"></stop></linearGradient></defs><g data-v-fde0c5aa="" id="f34a7456-6a85-4c55-abfc-0f754dbf2e37" fill="url(#2dbfbf65-cd04-467b-b2fc-2bb280844c6f)" transform="matrix(2.960937976837158,0,0,2.960937976837158,38.346038588928025,119.78339729772358)"><path d="M5.39 13.71L5.39 13.71Q3.99 13.71 2.89 13.08L2.89 13.08L2.89 13.08Q1.79 12.45 1.18 11.29L1.18 11.29L1.18 11.29Q0.56 10.14 0.56 8.61L0.56 8.61L0.56 8.61Q0.56 7.08 1.18 5.93L1.18 5.93L1.18 5.93Q1.79 4.77 2.89 4.14L2.89 4.14L2.89 4.14Q3.99 3.51 5.39 3.51L5.39 3.51L5.39 3.51Q6.79 3.51 7.89 4.14L7.89 4.14L7.89 4.14Q8.99 4.77 9.60 5.93L9.60 5.93L9.60 5.93Q10.22 7.08 10.22 8.61L10.22 8.61L10.22 8.61Q10.22 10.14 9.60 11.29L9.60 11.29L9.60 11.29Q8.99 12.45 7.89 13.08L7.89 13.08L7.89 13.08Q6.79 13.71 5.39 13.71L5.39 13.71ZM5.39 12.42L5.39 12.42Q6.48 12.42 7.25 11.92L7.25 11.92L7.25 11.92Q8.02 11.42 8.41 10.56L8.41 10.56L8.41 10.56Q8.79 9.70 8.79 8.61L8.79 8.61L8.79 8.61Q8.79 7.52 8.41 6.66L8.41 6.66L8.41 6.66Q8.02 5.80 7.25 5.30L7.25 5.30L7.25 5.30Q6.48 4.80 5.39 4.80L5.39 4.80L5.39 4.80Q4.30 4.80 3.53 5.30L3.53 5.30L3.53 5.30Q2.76 5.80 2.37 6.66L2.37 6.66L2.37 6.66Q1.99 7.52 1.99 8.61L1.99 8.61L1.99 8.61Q1.99 9.70 2.37 10.56L2.37 10.56L2.37 10.56Q2.76 11.42 3.53 11.92L3.53 11.92L3.53 11.92Q4.30 12.42 5.39 12.42L5.39 12.42ZM15.12 6.51L15.12 6.51Q16.03 6.51 16.71 6.98L16.71 6.98L16.71 6.98Q17.39 7.45 17.75 8.26L17.75 8.26L17.75 8.26Q18.12 9.07 18.12 10.08L18.12 10.08L18.12 10.08Q18.12 11.10 17.77 11.91L17.77 11.91L17.77 11.91Q17.43 12.71 16.76 13.18L16.76 13.18L16.76 13.18Q16.09 13.65 15.12 13.65L15.12 13.65L15.12 13.65Q14.41 13.65 13.82 13.40L13.82 13.40L13.82 13.40Q13.23 13.15 12.89 12.67L12.89 12.67L12.89 16.90L11.63 16.90L11.63 6.65L12.61 6.65L12.75 7.60L12.75 7.60Q13.62 6.51 15.12 6.51L15.12 6.51ZM14.88 12.53L14.88 12.53Q15.79 12.53 16.31 11.88L16.31 11.88L16.31 11.88Q16.83 11.23 16.83 10.08L16.83 10.08L16.83 10.08Q16.83 8.93 16.31 8.28L16.31 8.28L16.31 8.28Q15.79 7.63 14.88 7.63L14.88 7.63L14.88 7.63Q13.99 7.63 13.40 8.26L13.40 8.26L13.40 8.26Q12.82 8.89 12.82 10.08L12.82 10.08L12.82 10.08Q12.82 11.31 13.40 11.92L13.40 11.92L13.40 11.92Q13.97 12.53 14.88 12.53L14.88 12.53ZM21.80 13.65L21.80 13.65Q20.89 13.65 20.45 13.17L20.45 13.17L20.45 13.17Q20.01 12.70 20.01 12.01L20.01 12.01L20.01 7.63L18.83 7.63L18.94 6.65L20.01 6.65L20.01 4.96L21.27 4.83L21.27 6.65L23.07 6.65L23.07 7.63L21.27 7.63L21.27 11.24L21.27 11.24Q21.27 11.96 21.35 12.22L21.35 12.22L21.35 12.22Q21.43 12.49 21.71 12.56L21.71 12.56L21.71 12.56Q21.98 12.64 22.71 12.64L22.71 12.64L23.03 12.64L22.93 13.65L21.80 13.65ZM24.67 16.90L26.25 13.20L23.39 6.65L24.79 6.65L26.94 11.75L28.87 6.65L30.27 6.65L26.07 16.90L24.67 16.90ZM39.23 6.51L39.23 6.51Q41.86 6.51 41.86 9.46L41.86 9.46L41.86 13.51L40.60 13.51L40.60 9.48L40.60 9.48Q40.60 8.51 40.22 8.07L40.22 8.07L40.22 8.07Q39.84 7.63 38.99 7.63L38.99 7.63L38.99 7.63Q37.17 7.63 37.17 9.53L37.17 9.53L37.17 13.51L35.91 13.51L35.91 9.73L35.91 9.73Q35.91 8.55 35.50 8.09L35.50 8.09L35.50 8.09Q35.08 7.63 34.30 7.63L34.30 7.63L34.30 7.63Q33.68 7.63 33.21 7.85L33.21 7.85L33.21 7.85Q32.73 8.08 32.48 8.53L32.48 8.53L32.48 13.51L31.22 13.51L31.22 6.65L32.20 6.65L32.34 7.38L32.34 7.38Q32.86 6.92 33.38 6.71L33.38 6.71L33.38 6.71Q33.91 6.51 34.51 6.51L34.51 6.51L34.51 6.51Q36.08 6.51 36.72 7.88L36.72 7.88L36.72 7.88Q37.44 6.51 39.23 6.51L39.23 6.51ZM43.50 5.11L43.50 3.71L44.76 3.71L44.76 5.11L43.50 5.11ZM43.50 13.51L43.50 6.65L44.76 6.65L44.76 13.51L43.50 13.51ZM51.86 6.65L48.03 12.40L51.79 12.40L51.79 13.51L45.92 13.51L49.74 7.76L46.14 7.76L46.14 6.65L51.86 6.65ZM54.66 13.65L54.66 13.65Q53.70 13.65 53.12 13.09L53.12 13.09L53.12 13.09Q52.54 12.53 52.54 11.66L52.54 11.66L52.54 11.66Q52.54 10.36 53.77 9.80L53.77 9.80L53.77 9.80Q55.01 9.24 56.64 9.21L56.64 9.21L56.64 9.21Q56.64 8.29 56.29 7.96L56.29 7.96L56.29 7.96Q55.93 7.63 55.15 7.63L55.15 7.63L55.15 7.63Q54.71 7.63 54.28 7.76L54.28 7.76L54.28 7.76Q53.84 7.90 53.34 8.25L53.34 8.25L53.16 7.22L53.16 7.22Q53.58 6.90 54.19 6.71L54.19 6.71L54.19 6.71Q54.81 6.51 55.48 6.51L55.48 6.51L55.48 6.51Q56.36 6.51 56.89 6.82L56.89 6.82L56.89 6.82Q57.41 7.13 57.66 7.84L57.66 7.84L57.66 7.84Q57.90 8.55 57.90 9.80L57.90 9.80L57.90 11.20L57.90 11.20Q57.90 11.76 57.95 12.05L57.95 12.05L57.95 12.05Q58.00 12.33 58.17 12.49L58.17 12.49L58.17 12.49Q58.34 12.64 58.69 12.64L58.69 12.64L58.81 12.64L58.62 13.65L58.52 13.65L58.52 13.65Q57.93 13.65 57.60 13.54L57.60 13.54L57.60 13.54Q57.26 13.43 57.08 13.22L57.08 13.22L57.08 13.22Q56.91 13.01 56.76 12.64L56.76 12.64L56.76 12.64Q55.89 13.65 54.66 13.65L54.66 13.65ZM54.89 12.64L54.89 12.64Q55.40 12.64 55.87 12.39L55.87 12.39L55.87 12.39Q56.34 12.14 56.64 11.72L56.64 11.72L56.64 10.08L56.64 10.08Q55.13 10.14 54.48 10.48L54.48 10.48L54.48 10.48Q53.83 10.82 53.83 11.59L53.83 11.59L53.83 11.59Q53.83 12.12 54.12 12.38L54.12 12.38L54.12 12.38Q54.40 12.64 54.89 12.64L54.89 12.64ZM62.93 13.65L62.93 13.65Q61.81 13.65 61.00 13.19L61.00 13.19L61.00 13.19Q60.20 12.73 59.79 11.92L59.79 11.92L59.79 11.92Q59.39 11.12 59.39 10.12L59.39 10.12L59.39 10.12Q59.39 8.50 60.30 7.50L60.30 7.50L60.30 7.50Q61.22 6.51 63.03 6.51L63.03 6.51L63.03 6.51Q64.09 6.51 64.90 6.92L64.90 6.92L64.71 8.02L64.71 8.02Q63.85 7.63 63.00 7.63L63.00 7.63L63.00 7.63Q61.88 7.63 61.28 8.27L61.28 8.27L61.28 8.27Q60.68 8.90 60.68 10.07L60.68 10.07L60.68 10.07Q60.68 11.23 61.26 11.89L61.26 11.89L61.26 11.89Q61.84 12.54 62.97 12.54L62.97 12.54L62.97 12.54Q63.88 12.54 64.72 12.12L64.72 12.12L64.89 13.13L64.89 13.13Q64.58 13.34 64.04 13.50L64.04 13.50L64.04 13.50Q63.50 13.65 62.93 13.65L62.93 13.65ZM66.14 5.11L66.14 3.71L67.40 3.71L67.40 5.11L66.14 5.11ZM65.25 16.90L65.11 15.93L65.11 15.93Q65.55 15.89 65.76 15.77L65.76 15.77L65.76 15.77Q65.97 15.65 66.05 15.37L66.05 15.37L66.05 15.37Q66.14 15.09 66.14 14.53L66.14 14.53L66.14 6.65L67.40 6.65L67.40 15.01L67.40 15.01Q67.40 15.89 66.88 16.30L66.88 16.30L66.88 16.30Q66.37 16.72 65.67 16.83L65.67 16.83L65.25 16.90ZM70.70 13.65L70.70 13.65Q69.75 13.65 69.17 13.09L69.17 13.09L69.17 13.09Q68.59 12.53 68.59 11.66L68.59 11.66L68.59 11.66Q68.59 10.36 69.82 9.80L69.82 9.80L69.82 9.80Q71.05 9.24 72.69 9.21L72.69 9.21L72.69 9.21Q72.69 8.29 72.33 7.96L72.33 7.96L72.33 7.96Q71.97 7.63 71.19 7.63L71.19 7.63L71.19 7.63Q70.76 7.63 70.32 7.76L70.32 7.76L70.32 7.76Q69.89 7.90 69.38 8.25L69.38 8.25L69.20 7.22L69.20 7.22Q69.62 6.90 70.24 6.71L70.24 6.71L70.24 6.71Q70.85 6.51 71.53 6.51L71.53 6.51L71.53 6.51Q72.41 6.51 72.93 6.82L72.93 6.82L72.93 6.82Q73.46 7.13 73.70 7.84L73.70 7.84L73.70 7.84Q73.95 8.55 73.95 9.80L73.95 9.80L73.95 11.20L73.95 11.20Q73.95 11.76 74.00 12.05L74.00 12.05L74.00 12.05Q74.05 12.33 74.21 12.49L74.21 12.49L74.21 12.49Q74.38 12.64 74.73 12.64L74.73 12.64L74.86 12.64L74.66 13.65L74.56 13.65L74.56 13.65Q73.98 13.65 73.64 13.54L73.64 13.54L73.64 13.54Q73.30 13.43 73.13 13.22L73.13 13.22L73.13 13.22Q72.95 13.01 72.80 12.64L72.80 12.64L72.80 12.64Q71.93 13.65 70.70 13.65L70.70 13.65ZM70.94 12.64L70.94 12.64Q71.44 12.64 71.91 12.39L71.91 12.39L71.91 12.39Q72.38 12.14 72.69 11.72L72.69 11.72L72.69 10.08L72.69 10.08Q71.18 10.14 70.53 10.48L70.53 10.48L70.53 10.48Q69.87 10.82 69.87 11.59L69.87 11.59L69.87 11.59Q69.87 12.12 70.16 12.38L70.16 12.38L70.16 12.38Q70.45 12.64 70.94 12.64L70.94 12.64Z"></path></g><!----><!----></svg>